<?xml version="1.0" encoding="utf-8"?>
<svg version="1.1" xmlns:xlink="http://www.w3.org/1999/xlink" width="18px" height="18px" xmlns="http://www.w3.org/2000/svg">
  <defs>
    <mask fill="white" id="clip1">
      <path d="M 6.9609375 11.0390625  C 6.01262019230762 10.0907451923077  5.53846153846143 8.94951923076923  5.53846153846143 7.61538461538461  C 5.53846153846143 6.28125  6.01262019230762 5.14002403846155  6.9609375 4.19170673076923  C 7.90925480769238 3.24338942307691  9.05048076923072 2.76923076923077  10.3846153846155 2.76923076923077  C 11.71875 2.76923076923077  12.8599759615383 3.24338942307691  13.8082932692307 4.19170673076923  C 14.7566105769231 5.14002403846155  15.2307692307693 6.28125  15.2307692307693 7.61538461538461  C 15.2307692307693 8.94951923076923  14.7566105769231 10.0907451923077  13.8082932692307 11.0390625  C 12.8599759615383 11.9873798076923  11.71875 12.4615384615385  10.3846153846155 12.4615384615385  C 9.05048076923072 12.4615384615385  7.90925480769238 11.9873798076923  6.9609375 11.0390625  Z M 0.400240384615472 15.6418269230769  C 0.133413461538339 15.9086538461538  0 16.2331730769231  0 16.6153846153846  C 0 16.9903846153846  0.137019230769283 17.3149038461538  0.41105769230785 17.5889423076923  C 0.685096153846189 17.8629807692307  1.00961538461547 18  1.38461538461547 18  C 1.77403846153857 18  2.09855769230785 17.8629807692307  2.35817307692309 17.5889423076923  L 6.06850961538453 13.8894230769231  C 7.359375 14.7836538461538  8.79807692307691 15.2307692307692  10.3846153846155 15.2307692307692  C 11.4158653846155 15.2307692307692  12.4020432692307 15.0306490384615  13.3431490384614 14.6304086538462  C 14.2842548076922 14.2301682692308  15.0955528846155 13.6893028846154  15.7770432692307 13.0078125  C 16.4585336538462 12.3263221153846  16.9993990384614 11.5150240384615  17.3996394230769 10.5739182692308  C 17.7998798076922 9.6328125  18 8.64663461538461  18 7.61538461538461  C 18 6.58413461538461  17.7998798076922 5.59795673076923  17.3996394230769 4.65685096153848  C 16.9993990384614 3.71574519230768  16.4585336538462 2.90444711538461  15.7770432692307 2.22295673076923  C 15.0955528846155 1.54146634615384  14.2842548076922 1.00060096153848  13.3431490384614 0.600360576923066  C 12.4020432692307 0.200120192307679  11.4158653846155 0  10.3846153846155 0  C 9.35336538461524 0  8.3671875 0.200120192307679  7.42608173076928 0.600360576923066  C 6.48497596153857 1.00060096153848  5.67367788461547 1.54146634615384  4.9921875 2.22295673076923  C 4.31069711538453 2.90444711538461  3.76983173076928 3.71574519230768  3.36959134615381 4.65685096153848  C 2.96935096153857 5.59795673076923  2.76923076923072 6.58413461538461  2.76923076923072 7.61538461538461  C 2.76923076923072 9.20192307692309  3.21634615384619 10.640625  4.11057692307691 11.9314903846154  L 0.400240384615472 15.6418269230769  Z " fill-rule="evenodd" />
    </mask>
  </defs>
  <g transform="matrix(1 0 0 1 -714 -283 )">
    <path d="M 6.9609375 11.0390625  C 6.01262019230762 10.0907451923077  5.53846153846143 8.94951923076923  5.53846153846143 7.61538461538461  C 5.53846153846143 6.28125  6.01262019230762 5.14002403846155  6.9609375 4.19170673076923  C 7.90925480769238 3.24338942307691  9.05048076923072 2.76923076923077  10.3846153846155 2.76923076923077  C 11.71875 2.76923076923077  12.8599759615383 3.24338942307691  13.8082932692307 4.19170673076923  C 14.7566105769231 5.14002403846155  15.2307692307693 6.28125  15.2307692307693 7.61538461538461  C 15.2307692307693 8.94951923076923  14.7566105769231 10.0907451923077  13.8082932692307 11.0390625  C 12.8599759615383 11.9873798076923  11.71875 12.4615384615385  10.3846153846155 12.4615384615385  C 9.05048076923072 12.4615384615385  7.90925480769238 11.9873798076923  6.9609375 11.0390625  Z M 0.400240384615472 15.6418269230769  C 0.133413461538339 15.9086538461538  0 16.2331730769231  0 16.6153846153846  C 0 16.9903846153846  0.137019230769283 17.3149038461538  0.41105769230785 17.5889423076923  C 0.685096153846189 17.8629807692307  1.00961538461547 18  1.38461538461547 18  C 1.77403846153857 18  2.09855769230785 17.8629807692307  2.35817307692309 17.5889423076923  L 6.06850961538453 13.8894230769231  C 7.359375 14.7836538461538  8.79807692307691 15.2307692307692  10.3846153846155 15.2307692307692  C 11.4158653846155 15.2307692307692  12.4020432692307 15.0306490384615  13.3431490384614 14.6304086538462  C 14.2842548076922 14.2301682692308  15.0955528846155 13.6893028846154  15.7770432692307 13.0078125  C 16.4585336538462 12.3263221153846  16.9993990384614 11.5150240384615  17.3996394230769 10.5739182692308  C 17.7998798076922 9.6328125  18 8.64663461538461  18 7.61538461538461  C 18 6.58413461538461  17.7998798076922 5.59795673076923  17.3996394230769 4.65685096153848  C 16.9993990384614 3.71574519230768  16.4585336538462 2.90444711538461  15.7770432692307 2.22295673076923  C 15.0955528846155 1.54146634615384  14.2842548076922 1.00060096153848  13.3431490384614 0.600360576923066  C 12.4020432692307 0.200120192307679  11.4158653846155 0  10.3846153846155 0  C 9.35336538461524 0  8.3671875 0.200120192307679  7.42608173076928 0.600360576923066  C 6.48497596153857 1.00060096153848  5.67367788461547 1.54146634615384  4.9921875 2.22295673076923  C 4.31069711538453 2.90444711538461  3.76983173076928 3.71574519230768  3.36959134615381 4.65685096153848  C 2.96935096153857 5.59795673076923  2.76923076923072 6.58413461538461  2.76923076923072 7.61538461538461  C 2.76923076923072 9.20192307692309  3.21634615384619 10.640625  4.11057692307691 11.9314903846154  L 0.400240384615472 15.6418269230769  Z " fill-rule="nonzero" fill="#000000" stroke="none" transform="matrix(1 0 0 1 714 283 )" />
    <path d="M 6.9609375 11.0390625  C 6.01262019230762 10.0907451923077  5.53846153846143 8.94951923076923  5.53846153846143 7.61538461538461  C 5.53846153846143 6.28125  6.01262019230762 5.14002403846155  6.9609375 4.19170673076923  C 7.90925480769238 3.24338942307691  9.05048076923072 2.76923076923077  10.3846153846155 2.76923076923077  C 11.71875 2.76923076923077  12.8599759615383 3.24338942307691  13.8082932692307 4.19170673076923  C 14.7566105769231 5.14002403846155  15.2307692307693 6.28125  15.2307692307693 7.61538461538461  C 15.2307692307693 8.94951923076923  14.7566105769231 10.0907451923077  13.8082932692307 11.0390625  C 12.8599759615383 11.9873798076923  11.71875 12.4615384615385  10.3846153846155 12.4615384615385  C 9.05048076923072 12.4615384615385  7.90925480769238 11.9873798076923  6.9609375 11.0390625  Z " stroke-width="2" stroke="#999999" fill="none" transform="matrix(1 0 0 1 714 283 )" mask="url(#clip1)" />
    <path d="M 0.400240384615472 15.6418269230769  C 0.133413461538339 15.9086538461538  0 16.2331730769231  0 16.6153846153846  C 0 16.9903846153846  0.137019230769283 17.3149038461538  0.41105769230785 17.5889423076923  C 0.685096153846189 17.8629807692307  1.00961538461547 18  1.38461538461547 18  C 1.77403846153857 18  2.09855769230785 17.8629807692307  2.35817307692309 17.5889423076923  L 6.06850961538453 13.8894230769231  C 7.359375 14.7836538461538  8.79807692307691 15.2307692307692  10.3846153846155 15.2307692307692  C 11.4158653846155 15.2307692307692  12.4020432692307 15.0306490384615  13.3431490384614 14.6304086538462  C 14.2842548076922 14.2301682692308  15.0955528846155 13.6893028846154  15.7770432692307 13.0078125  C 16.4585336538462 12.3263221153846  16.9993990384614 11.5150240384615  17.3996394230769 10.5739182692308  C 17.7998798076922 9.6328125  18 8.64663461538461  18 7.61538461538461  C 18 6.58413461538461  17.7998798076922 5.59795673076923  17.3996394230769 4.65685096153848  C 16.9993990384614 3.71574519230768  16.4585336538462 2.90444711538461  15.7770432692307 2.22295673076923  C 15.0955528846155 1.54146634615384  14.2842548076922 1.00060096153848  13.3431490384614 0.600360576923066  C 12.4020432692307 0.200120192307679  11.4158653846155 0  10.3846153846155 0  C 9.35336538461524 0  8.3671875 0.200120192307679  7.42608173076928 0.600360576923066  C 6.48497596153857 1.00060096153848  5.67367788461547 1.54146634615384  4.9921875 2.22295673076923  C 4.31069711538453 2.90444711538461  3.76983173076928 3.71574519230768  3.36959134615381 4.65685096153848  C 2.96935096153857 5.59795673076923  2.76923076923072 6.58413461538461  2.76923076923072 7.61538461538461  C 2.76923076923072 9.20192307692309  3.21634615384619 10.640625  4.11057692307691 11.9314903846154  L 0.400240384615472 15.6418269230769  Z " stroke-width="2" stroke="#999999" fill="none" transform="matrix(1 0 0 1 714 283 )" mask="url(#clip1)" />
  </g>
</svg>