<?xml version="1.0" encoding="utf-8"?>
<svg version="1.1" xmlns:xlink="http://www.w3.org/1999/xlink" width="528px" height="151px" xmlns="http://www.w3.org/2000/svg">
  <g transform="matrix(1 0 0 1 -770 -163 )">
    <path d="M 770 163  L 1298 163  L 1298 314  L 770 314  L 770 163  " fill-rule="nonzero" fill="#cccccc" stroke="none" />
    <path d="M 781 174  L 1287 174  L 1287 303  L 781 303  L 781 174  " fill-rule="nonzero" fill="#ffffff" stroke="none" />
    <path d="M 1055.885 208.3  C 1049.543 208.3  1044.56 203.317  1044.56 196.975  C 1044.56 190.633  1049.543 185.65  1055.885 185.65  C 1062.227 185.65  1067.21 190.633  1067.21 196.975  C 1067.21 203.317  1062.227 208.3  1055.885 208.3  " fill-rule="nonzero" fill="#cccccc" stroke="none" />
    <path d="M 785 299  L 785 232.45  L 909.5 202.2  L 1083.8 278.2375  L 1183.4 220.35  L 1283 278.2375  L 1283 299  L 785 299  " fill-rule="nonzero" fill="#169bd5" stroke="none" />
  </g>
</svg>