<?xml version="1.0" encoding="utf-8"?>
<svg version="1.1" xmlns:xlink="http://www.w3.org/1999/xlink" width="22px" height="14px" xmlns="http://www.w3.org/2000/svg">
  <defs>
    <mask fill="white" id="clip7">
      <path d="M 11 0.247282608695642  C 17.5760869565217 0.247282608695642  21.9601449275362 7  21.9601449275362 7  C 21.9601449275362 7  17.5760869565217 13.7527173913044  11 13.7527173913044  C 4.42391304347825 13.7527173913044  0.0398550724637516 7  0.0398550724637516 7  C 0.0398550724637516 7  4.42391304347825 0.247282608695642  11 0.247282608695642  Z " fill-rule="evenodd" />
    </mask>
  </defs>
  <g transform="matrix(1 0 0 1 -1029 -19 )">
    <path d="M 11 0.247282608695642  C 17.5760869565217 0.247282608695642  21.9601449275362 7  21.9601449275362 7  C 21.9601449275362 7  17.5760869565217 13.7527173913044  11 13.7527173913044  C 4.42391304347825 13.7527173913044  0.0398550724637516 7  0.0398550724637516 7  C 0.0398550724637516 7  4.42391304347825 0.247282608695642  11 0.247282608695642  Z " fill-rule="nonzero" fill="#ffffff" stroke="none" fill-opacity="0" transform="matrix(1 0 0 1 1029 19 )" />
    <path d="M 11 0.247282608695642  C 17.5760869565217 0.247282608695642  21.9601449275362 7  21.9601449275362 7  C 21.9601449275362 7  17.5760869565217 13.7527173913044  11 13.7527173913044  C 4.42391304347825 13.7527173913044  0.0398550724637516 7  0.0398550724637516 7  C 0.0398550724637516 7  4.42391304347825 0.247282608695642  11 0.247282608695642  Z " stroke-width="4" stroke="#b4966e" fill="none" transform="matrix(1 0 0 1 1029 19 )" mask="url(#clip7)" />
  </g>
</svg>